<svg width="253" height="121" viewBox="0 0 253 121" fill="none" xmlns="http://www.w3.org/2000/svg">
<path d="M99.7528 13.415C95.1854 9.12575 89.4339 6.30879 83.2452 5.32986C77.0564 4.35092 70.7163 5.25524 65.0481 7.92538C35.2689 18.4534 29.0273 62.5206 52.7905 82.035L53.1289 82.2982C55.5353 80.9446 56.8889 73.9886 58.1673 71.0182C58.8441 69.7022 60.3857 67.7094 62.2281 67.7094C61.4315 68.008 60.7292 68.514 60.1937 69.175C59.6583 69.8361 59.3092 70.6282 59.1825 71.4694C57.8665 78.6886 57.8665 91.435 47.4137 83.2382C25.1921 66.8822 24.8537 30.8614 44.3681 12.1742C58.8817 -2.22662 88.4728 -6.28742 99.7152 13.5278L99.7528 13.415Z" fill="#009741"/>
<path d="M59.1072 84.0654C67.6048 81.1326 100.881 78.5758 89.5632 95.3454C82.6824 104.219 70.7632 105.497 60.8744 104.595C59.4832 104.595 59.8216 105.046 59.7464 104.595C60.3856 110.874 70.124 117.379 76.2152 113.769C77.9891 112.501 79.4056 110.796 80.3278 108.82C81.25 106.844 81.6466 104.664 81.4792 102.489C82.5231 104.924 82.8124 107.616 82.3097 110.217C81.8069 112.818 80.5353 115.208 78.6592 117.078C70.4248 123.846 57.3776 118.695 53.1288 109.558C51.9953 107.933 51.4514 105.97 51.5872 103.993C51.8551 101.9 52.8539 99.9694 54.4072 98.5414C58.3928 95.3078 63.5816 96.4734 67.492 96.3982C71.5153 96.737 75.5531 95.9425 79.148 94.1046C81.4947 92.9637 83.542 91.2898 85.1264 89.2166C85.1577 89.4669 85.2624 89.7024 85.4272 89.8934C78.4336 84.7046 67.68 84.9302 59.1072 83.7646V84.0654Z" fill="#009741"/>
<path d="M99.9032 11.8357L54.7832 39.5093L76.8544 45.1117L59.4456 69.9653L92.9472 42.4797L79.4112 35.7493L99.9032 11.8357Z" fill="#FFF135"/>
<path d="M23.9888 91.7733H11.5808V108.205H26.132L24.7408 118.357H0V58.1965H24.6656V68.4237H11.5808V81.6213H23.9888V91.7733Z" fill="#009640"/>
<path d="M103.099 58.1589H118.553C128.554 58.1589 133.593 63.4229 133.593 74.1013V77.8613C133.593 88.3893 129.645 94.7813 118.214 94.7813H114.793V118.432H103.099V58.1589ZM114.68 85.3061H116.56C120.959 85.3061 121.899 82.8621 121.899 77.7861V73.6501C121.899 69.8901 120.997 67.2205 117.124 67.2205H114.68V85.3061Z" fill="#009640"/>
<path d="M150.137 92.1869V118.507H138.556V58.3469H153.596C163.673 58.3469 168.636 62.7837 168.636 73.3869V75.5301C168.636 84.1405 165.214 86.8101 162.62 87.9005C166.38 89.7053 168.11 92.4501 168.11 100.873C168.11 106.663 168.11 115.461 168.523 118.62H157.243C156.617 112.474 156.491 106.287 156.867 100.121C156.867 93.3525 156.078 92.1869 151.678 92.1869H150.137ZM150.137 83.0501H151.603C155.363 83.0501 157.018 81.8469 157.018 76.2445V73.3117C156.867 69.2885 156.228 67.3333 151.979 67.3333H150.137V83.0501Z" fill="#009640"/>
<path d="M205.183 74.2518V102.189C205.183 114.145 199.543 119.259 189.015 119.259C178.487 119.259 173.975 114.033 173.975 102.301V73.951C173.975 62.3326 180.367 57.2566 189.617 57.2566C198.866 57.2566 205.183 62.2574 205.183 74.2518ZM185.594 72.9734V103.73C185.594 107.49 186.872 109.408 189.354 109.408C191.835 109.408 193.114 107.641 193.114 103.693V72.8606C193.114 69.1006 192.098 67.183 189.166 67.183C186.233 67.183 185.594 68.9502 185.594 72.9734Z" fill="#009640"/>
<path d="M211.387 58.1589H236.354V68.3861H222.968V82.1101H235.602V92.3749H222.968V118.357H211.387V58.1589Z" fill="#009640"/>
<path d="M252.935 58.1589V118.319H241.354V58.1589H252.935Z" fill="#009640"/>
</svg>
